<mxfile host="app.diagrams.net" modified="2020-09-04T13:06:25.214Z" agent="5.0 (Windows NT 10.0; Win64; x64) AppleWebKit/537.36 (KHTML, like Gecko) Chrome/81.0.4044.138 Safari/537.36 OPR/68.0.3618.206" etag="REh5S8FGqAbBnkcBjdxY" version="13.6.2" type="github">
  <diagram id="C5RBs43oDa-KdzZeNtuy" name="Page-1">
    <mxGraphModel dx="2336" dy="836" grid="1" gridSize="10" guides="1" tooltips="1" connect="1" arrows="1" fold="1" page="1" pageScale="1" pageWidth="827" pageHeight="1169" math="0" shadow="0">
      <root>
        <mxCell id="WIyWlLk6GJQsqaUBKTNV-0" />
        <mxCell id="WIyWlLk6GJQsqaUBKTNV-1" parent="WIyWlLk6GJQsqaUBKTNV-0" />
        <mxCell id="HI0kiRMXfc83BBO8BUk5-18" value="database" style="shape=folder;fontStyle=1;spacingTop=10;tabWidth=40;tabHeight=14;tabPosition=left;html=1;" parent="WIyWlLk6GJQsqaUBKTNV-1" vertex="1">
          <mxGeometry x="-780" y="20" width="733" height="620" as="geometry" />
        </mxCell>
        <mxCell id="HI0kiRMXfc83BBO8BUk5-15" value="" style="endArrow=none;html=1;edgeStyle=orthogonalEdgeStyle;entryX=-0.002;entryY=0.177;entryDx=0;entryDy=0;entryPerimeter=0;exitX=1.017;exitY=0.123;exitDx=0;exitDy=0;exitPerimeter=0;" parent="WIyWlLk6GJQsqaUBKTNV-1" source="HI0kiRMXfc83BBO8BUk5-0" target="HI0kiRMXfc83BBO8BUk5-7" edge="1">
          <mxGeometry relative="1" as="geometry">
            <mxPoint x="-870" y="80" as="sourcePoint" />
            <mxPoint x="-710" y="80" as="targetPoint" />
          </mxGeometry>
        </mxCell>
        <mxCell id="HI0kiRMXfc83BBO8BUk5-16" value="0..n" style="edgeLabel;resizable=0;html=1;align=left;verticalAlign=bottom;" parent="HI0kiRMXfc83BBO8BUk5-15" connectable="0" vertex="1">
          <mxGeometry x="-1" relative="1" as="geometry" />
        </mxCell>
        <mxCell id="HI0kiRMXfc83BBO8BUk5-17" value="0..n" style="edgeLabel;resizable=0;html=1;align=right;verticalAlign=bottom;" parent="HI0kiRMXfc83BBO8BUk5-15" connectable="0" vertex="1">
          <mxGeometry x="1" relative="1" as="geometry" />
        </mxCell>
        <mxCell id="HI0kiRMXfc83BBO8BUk5-26" value="Use" style="endArrow=open;endSize=12;dashed=1;html=1;" parent="WIyWlLk6GJQsqaUBKTNV-1" source="HI0kiRMXfc83BBO8BUk5-0" target="HI0kiRMXfc83BBO8BUk5-11" edge="1">
          <mxGeometry width="160" relative="1" as="geometry">
            <mxPoint x="-647" y="300" as="sourcePoint" />
            <mxPoint x="-487" y="300" as="targetPoint" />
          </mxGeometry>
        </mxCell>
        <mxCell id="HI0kiRMXfc83BBO8BUk5-31" value="Use" style="endArrow=open;endSize=12;dashed=1;html=1;entryX=0;entryY=0;entryDx=20;entryDy=0;entryPerimeter=0;" parent="WIyWlLk6GJQsqaUBKTNV-1" source="HI0kiRMXfc83BBO8BUk5-0" target="HI0kiRMXfc83BBO8BUk5-32" edge="1">
          <mxGeometry width="160" relative="1" as="geometry">
            <mxPoint x="-467" y="320" as="sourcePoint" />
            <mxPoint x="-307" y="320" as="targetPoint" />
          </mxGeometry>
        </mxCell>
        <mxCell id="HI0kiRMXfc83BBO8BUk5-32" value="connections" style="shape=folder;fontStyle=1;spacingTop=10;tabWidth=40;tabHeight=14;tabPosition=left;html=1;" parent="WIyWlLk6GJQsqaUBKTNV-1" vertex="1">
          <mxGeometry x="-397" y="260" width="330" height="370" as="geometry" />
        </mxCell>
        <mxCell id="HI0kiRMXfc83BBO8BUk5-37" value="Extends" style="endArrow=block;endSize=16;endFill=0;html=1;" parent="WIyWlLk6GJQsqaUBKTNV-1" source="HI0kiRMXfc83BBO8BUk5-33" target="HI0kiRMXfc83BBO8BUk5-27" edge="1">
          <mxGeometry width="160" relative="1" as="geometry">
            <mxPoint x="-372" y="381" as="sourcePoint" />
            <mxPoint x="-212" y="381" as="targetPoint" />
          </mxGeometry>
        </mxCell>
        <mxCell id="HI0kiRMXfc83BBO8BUk5-42" value="Extends" style="endArrow=block;endSize=16;endFill=0;html=1;" parent="WIyWlLk6GJQsqaUBKTNV-1" source="HI0kiRMXfc83BBO8BUk5-38" target="HI0kiRMXfc83BBO8BUk5-27" edge="1">
          <mxGeometry width="160" relative="1" as="geometry">
            <mxPoint x="-272" y="481" as="sourcePoint" />
            <mxPoint x="-112" y="481" as="targetPoint" />
          </mxGeometry>
        </mxCell>
        <mxCell id="HI0kiRMXfc83BBO8BUk5-47" value="Extends" style="endArrow=block;endSize=16;endFill=0;html=1;" parent="WIyWlLk6GJQsqaUBKTNV-1" source="HI0kiRMXfc83BBO8BUk5-43" target="HI0kiRMXfc83BBO8BUk5-27" edge="1">
          <mxGeometry width="160" relative="1" as="geometry">
            <mxPoint x="-182" y="481" as="sourcePoint" />
            <mxPoint x="-22" y="481" as="targetPoint" />
          </mxGeometry>
        </mxCell>
        <mxCell id="HI0kiRMXfc83BBO8BUk5-0" value="User" style="swimlane;fontStyle=1;align=center;verticalAlign=top;childLayout=stackLayout;horizontal=1;startSize=26;horizontalStack=0;resizeParent=1;resizeParentMax=0;resizeLast=0;collapsible=1;marginBottom=0;" parent="WIyWlLk6GJQsqaUBKTNV-1" vertex="1">
          <mxGeometry x="-747" y="77" width="220" height="150" as="geometry" />
        </mxCell>
        <mxCell id="HI0kiRMXfc83BBO8BUk5-1" value="- tag:String" style="text;strokeColor=none;fillColor=none;align=left;verticalAlign=top;spacingLeft=4;spacingRight=4;overflow=hidden;rotatable=0;points=[[0,0.5],[1,0.5]];portConstraint=eastwest;" parent="HI0kiRMXfc83BBO8BUk5-0" vertex="1">
          <mxGeometry y="26" width="220" height="26" as="geometry" />
        </mxCell>
        <mxCell id="HI0kiRMXfc83BBO8BUk5-4" value="- id:Long" style="text;strokeColor=none;fillColor=none;align=left;verticalAlign=top;spacingLeft=4;spacingRight=4;overflow=hidden;rotatable=0;points=[[0,0.5],[1,0.5]];portConstraint=eastwest;" parent="HI0kiRMXfc83BBO8BUk5-0" vertex="1">
          <mxGeometry y="52" width="220" height="26" as="geometry" />
        </mxCell>
        <mxCell id="HI0kiRMXfc83BBO8BUk5-6" value="- servers: Map&lt;Server,Permission&gt;&#xa;- connections: List&lt;Connection&gt;" style="text;strokeColor=none;fillColor=none;align=left;verticalAlign=top;spacingLeft=4;spacingRight=4;overflow=hidden;rotatable=0;points=[[0,0.5],[1,0.5]];portConstraint=eastwest;" parent="HI0kiRMXfc83BBO8BUk5-0" vertex="1">
          <mxGeometry y="78" width="220" height="72" as="geometry" />
        </mxCell>
        <mxCell id="HI0kiRMXfc83BBO8BUk5-7" value="Server" style="swimlane;fontStyle=0;childLayout=stackLayout;horizontal=1;startSize=26;fillColor=none;horizontalStack=0;resizeParent=1;resizeParentMax=0;resizeLast=0;collapsible=1;marginBottom=0;" parent="WIyWlLk6GJQsqaUBKTNV-1" vertex="1">
          <mxGeometry x="-387" y="77" width="240" height="104" as="geometry" />
        </mxCell>
        <mxCell id="HI0kiRMXfc83BBO8BUk5-8" value="- users:List&lt;User&gt;" style="text;strokeColor=none;fillColor=none;align=left;verticalAlign=top;spacingLeft=4;spacingRight=4;overflow=hidden;rotatable=0;points=[[0,0.5],[1,0.5]];portConstraint=eastwest;" parent="HI0kiRMXfc83BBO8BUk5-7" vertex="1">
          <mxGeometry y="26" width="240" height="26" as="geometry" />
        </mxCell>
        <mxCell id="HI0kiRMXfc83BBO8BUk5-9" value="- id:Long" style="text;strokeColor=none;fillColor=none;align=left;verticalAlign=top;spacingLeft=4;spacingRight=4;overflow=hidden;rotatable=0;points=[[0,0.5],[1,0.5]];portConstraint=eastwest;" parent="HI0kiRMXfc83BBO8BUk5-7" vertex="1">
          <mxGeometry y="52" width="240" height="26" as="geometry" />
        </mxCell>
        <mxCell id="HI0kiRMXfc83BBO8BUk5-10" value="- name:String" style="text;strokeColor=none;fillColor=none;align=left;verticalAlign=top;spacingLeft=4;spacingRight=4;overflow=hidden;rotatable=0;points=[[0,0.5],[1,0.5]];portConstraint=eastwest;" parent="HI0kiRMXfc83BBO8BUk5-7" vertex="1">
          <mxGeometry y="78" width="240" height="26" as="geometry" />
        </mxCell>
        <mxCell id="HI0kiRMXfc83BBO8BUk5-11" value="Permission" style="swimlane;fontStyle=0;childLayout=stackLayout;horizontal=1;startSize=26;fillColor=none;horizontalStack=0;resizeParent=1;resizeParentMax=0;resizeLast=0;collapsible=1;marginBottom=0;" parent="WIyWlLk6GJQsqaUBKTNV-1" vertex="1">
          <mxGeometry x="-717" y="370" width="160" height="104" as="geometry" />
        </mxCell>
        <mxCell id="HI0kiRMXfc83BBO8BUk5-12" value="- admin:boolean" style="text;strokeColor=none;fillColor=none;align=left;verticalAlign=top;spacingLeft=4;spacingRight=4;overflow=hidden;rotatable=0;points=[[0,0.5],[1,0.5]];portConstraint=eastwest;" parent="HI0kiRMXfc83BBO8BUk5-11" vertex="1">
          <mxGeometry y="26" width="160" height="26" as="geometry" />
        </mxCell>
        <mxCell id="HI0kiRMXfc83BBO8BUk5-13" value="- messagesSend:boolean" style="text;strokeColor=none;fillColor=none;align=left;verticalAlign=top;spacingLeft=4;spacingRight=4;overflow=hidden;rotatable=0;points=[[0,0.5],[1,0.5]];portConstraint=eastwest;" parent="HI0kiRMXfc83BBO8BUk5-11" vertex="1">
          <mxGeometry y="52" width="160" height="26" as="geometry" />
        </mxCell>
        <mxCell id="HI0kiRMXfc83BBO8BUk5-14" value="- Emojis change:boolean" style="text;strokeColor=none;fillColor=none;align=left;verticalAlign=top;spacingLeft=4;spacingRight=4;overflow=hidden;rotatable=0;points=[[0,0.5],[1,0.5]];portConstraint=eastwest;" parent="HI0kiRMXfc83BBO8BUk5-11" vertex="1">
          <mxGeometry y="78" width="160" height="26" as="geometry" />
        </mxCell>
        <mxCell id="HI0kiRMXfc83BBO8BUk5-27" value="Connection&#xa;&lt;&lt;abstract&gt;&gt;" style="swimlane;fontStyle=0;childLayout=stackLayout;horizontal=1;startSize=26;fillColor=none;horizontalStack=0;resizeParent=1;resizeParentMax=0;resizeLast=0;collapsible=1;marginBottom=0;" parent="WIyWlLk6GJQsqaUBKTNV-1" vertex="1">
          <mxGeometry x="-302" y="281" width="150" height="52" as="geometry" />
        </mxCell>
        <mxCell id="HI0kiRMXfc83BBO8BUk5-28" value="- name:String" style="text;strokeColor=none;fillColor=none;align=left;verticalAlign=top;spacingLeft=4;spacingRight=4;overflow=hidden;rotatable=0;points=[[0,0.5],[1,0.5]];portConstraint=eastwest;" parent="HI0kiRMXfc83BBO8BUk5-27" vertex="1">
          <mxGeometry y="26" width="150" height="26" as="geometry" />
        </mxCell>
        <mxCell id="HI0kiRMXfc83BBO8BUk5-38" value="Spotify" style="swimlane;fontStyle=0;childLayout=stackLayout;horizontal=1;startSize=26;fillColor=none;horizontalStack=0;resizeParent=1;resizeParentMax=0;resizeLast=0;collapsible=1;marginBottom=0;" parent="WIyWlLk6GJQsqaUBKTNV-1" vertex="1">
          <mxGeometry x="-297" y="511" width="140" height="52" as="geometry" />
        </mxCell>
        <mxCell id="HI0kiRMXfc83BBO8BUk5-41" value="+ field: type" style="text;strokeColor=none;fillColor=none;align=left;verticalAlign=top;spacingLeft=4;spacingRight=4;overflow=hidden;rotatable=0;points=[[0,0.5],[1,0.5]];portConstraint=eastwest;" parent="HI0kiRMXfc83BBO8BUk5-38" vertex="1">
          <mxGeometry y="26" width="140" height="26" as="geometry" />
        </mxCell>
        <mxCell id="HI0kiRMXfc83BBO8BUk5-33" value="League" style="swimlane;fontStyle=0;childLayout=stackLayout;horizontal=1;startSize=26;fillColor=none;horizontalStack=0;resizeParent=1;resizeParentMax=0;resizeLast=0;collapsible=1;marginBottom=0;" parent="WIyWlLk6GJQsqaUBKTNV-1" vertex="1">
          <mxGeometry x="-387" y="380" width="140" height="52" as="geometry" />
        </mxCell>
        <mxCell id="HI0kiRMXfc83BBO8BUk5-36" value="+ field: type" style="text;strokeColor=none;fillColor=none;align=left;verticalAlign=top;spacingLeft=4;spacingRight=4;overflow=hidden;rotatable=0;points=[[0,0.5],[1,0.5]];portConstraint=eastwest;" parent="HI0kiRMXfc83BBO8BUk5-33" vertex="1">
          <mxGeometry y="26" width="140" height="26" as="geometry" />
        </mxCell>
        <mxCell id="HI0kiRMXfc83BBO8BUk5-43" value="..." style="swimlane;fontStyle=0;childLayout=stackLayout;horizontal=1;startSize=26;fillColor=none;horizontalStack=0;resizeParent=1;resizeParentMax=0;resizeLast=0;collapsible=1;marginBottom=0;" parent="WIyWlLk6GJQsqaUBKTNV-1" vertex="1">
          <mxGeometry x="-187" y="380" width="110" height="52" as="geometry" />
        </mxCell>
        <mxCell id="HI0kiRMXfc83BBO8BUk5-46" value="+ field: type" style="text;strokeColor=none;fillColor=none;align=left;verticalAlign=top;spacingLeft=4;spacingRight=4;overflow=hidden;rotatable=0;points=[[0,0.5],[1,0.5]];portConstraint=eastwest;" parent="HI0kiRMXfc83BBO8BUk5-43" vertex="1">
          <mxGeometry y="26" width="110" height="26" as="geometry" />
        </mxCell>
      </root>
    </mxGraphModel>
  </diagram>
</mxfile>
